<?xml version="1.0" encoding="iso-8859-1"?>
<!-- Uploaded to: SVG Repo, www.svgrepo.com, Generator: SVG Repo Mixer Tools -->
<svg height="800px" width="800px" version="1.1" id="Layer_1" xmlns="http://www.w3.org/2000/svg" xmlns:xlink="http://www.w3.org/1999/xlink" 
	 viewBox="0 0 512 512" xml:space="preserve">
<path style="fill:#EB86BF;" d="M512,256.006C512,397.402,397.394,512.004,256.004,512C114.606,512.004,0,397.402,0,256.006
	C-0.007,114.61,114.606,0,256.004,0C397.394,0,512,114.614,512,256.006z"/>
<path style="fill:#D670AD;" d="M509.06,294.925L342.898,128.763c-0.001-0.001-0.001-0.001-0.002-0.001l-1.667-1.667
	c-0.666-0.668-1.462-1.2-2.347-1.569c-0.88-0.368-1.83-0.566-2.803-0.566h-203.84c-4.021,0-7.28,3.26-7.28,7.28v36.401H88.56
	c-4.02,0-7.28,3.26-7.28,7.28v203.84c0,2.443,1.282,4.499,3.129,5.82c0.468,0.654,119.459,119.645,120.113,120.113
	c0.385,0.539,0.866,0.965,1.374,1.374c16.208,3.216,32.955,4.934,50.108,4.933C384.163,512.003,490.315,417.845,509.06,294.925z"/>
<path style="fill:#F4F6F9;" d="M430.154,216.797c-0.369-0.883-0.902-1.68-1.569-2.347l-87.356-87.356
	c-0.666-0.667-1.463-1.2-2.347-1.569c-0.88-0.368-1.83-0.566-2.803-0.566h-203.84c-4.02,0-7.28,3.26-7.28,7.28v36.401H88.56
	c-4.02,0-7.28,3.26-7.28,7.28v203.84c0,4.02,3.26,7.28,7.28,7.28h291.2c4.02,0,7.28-3.26,7.28-7.28v-36.4h36.4
	c4.02,0,7.28-3.26,7.28-7.28V219.6C430.72,218.628,430.522,217.678,430.154,216.797z M343.36,149.814l62.506,62.506H343.36V149.814z
	 M372.48,372.48H95.84V183.2h29.12v152.88c0,4.02,3.26,7.28,7.28,7.28h240.24V372.48z M139.52,328.8V139.52H328.8v80.08
	c0,4.02,3.26,7.28,7.28,7.28h80.08V328.8H139.52z"/>
</svg>